 <svg width="15" height="14" viewBox="0 0 15 14" fill="none" >
<path d="M14.9711 2.55792C14.9711 2.11167 14.8129 1.72988 14.4966 1.41255C14.1802 1.09521 13.7995 0.936548 13.3546 0.936548C12.8998 0.936548 12.5142 1.09521 12.1978 1.41255C11.8814 1.72988 11.7232 2.11167 11.7232 2.55792C11.7232 2.78601 11.8073 3.06863 11.9754 3.4058C12.1434 3.75288 12.3288 4.08757 12.5315 4.40986C12.7342 4.73215 12.9196 5.00734 13.0877 5.23542C13.2656 5.47342 13.3546 5.59242 13.3546 5.59242C13.3546 5.59242 13.4386 5.47838 13.6067 5.2503C13.7748 5.0123 13.9602 4.73463 14.1629 4.4173C14.3656 4.09996 14.5509 3.76776 14.719 3.42067C14.8871 3.07359 14.9711 2.78601 14.9711 2.55792ZM12.4055 2.55792C12.4055 2.30009 12.4969 2.07696 12.6798 1.88855C12.8627 1.70013 13.0877 1.60592 13.3546 1.60592C13.6117 1.61584 13.8317 1.71253 14.0146 1.89599C14.1975 2.07944 14.2939 2.30009 14.3038 2.55792C14.3038 2.82567 14.2098 3.05128 14.022 3.23474C13.8341 3.41819 13.6117 3.50992 13.3546 3.50992C13.0877 3.50992 12.8627 3.41819 12.6798 3.23474C12.4969 3.05128 12.4055 2.82567 12.4055 2.55792ZM3.49232 3.1083C2.80023 3.1083 2.20948 3.35374 1.72007 3.84461C1.23067 4.33549 0.985962 4.92801 0.985962 5.62217V5.63705C0.985962 5.98413 1.11944 6.42046 1.38639 6.94605C1.64345 7.47163 1.9277 7.98234 2.23914 8.47817C2.55058 8.97401 2.83978 9.40042 3.10672 9.75742C3.36379 10.1144 3.49232 10.2929 3.49232 10.2929C3.49232 10.2929 3.62579 10.1144 3.89274 9.75742C4.1498 9.41034 4.43406 8.98888 4.7455 8.49305C5.05694 7.99721 5.34613 7.48155 5.61308 6.94605C5.87014 6.42046 5.99867 5.97917 5.99867 5.62217C5.99867 4.93792 5.75397 4.35036 5.26456 3.85949C4.77516 3.36861 4.18441 3.11821 3.49232 3.1083ZM3.49232 7.0948C3.08695 7.0948 2.74338 6.95101 2.4616 6.66342C2.17982 6.37584 2.03893 6.03371 2.03893 5.63705V5.65192C2.03893 5.65192 2.03893 5.64944 2.03893 5.64449C2.03893 5.63953 2.03893 5.63705 2.03893 5.63705C2.03893 5.23046 2.18229 4.88586 2.46901 4.60324C2.75574 4.32061 3.10178 4.1793 3.50715 4.1793C3.90263 4.1793 4.24373 4.32309 4.53045 4.61067C4.81718 4.89826 4.96054 5.24038 4.96054 5.63705C4.96054 6.03371 4.81718 6.37584 4.53045 6.66342C4.24373 6.95101 3.89769 7.0948 3.49232 7.0948ZM4.20418 12.4795L5.39062 12.8365C5.68723 11.8548 6.15192 10.9871 6.78469 10.2334C7.40757 9.48967 8.13674 8.89219 8.97219 8.44099C9.80764 7.98978 10.7148 7.70467 11.6936 7.58567C12.6625 7.47659 13.6364 7.5708 14.6152 7.8683L14.986 6.6783C13.8391 6.33121 12.6971 6.22213 11.5601 6.35105C10.4231 6.47996 9.3652 6.80721 8.38639 7.3328C7.40757 7.85838 6.55235 8.56246 5.82071 9.44505C5.08907 10.3177 4.55023 11.3292 4.20418 12.4795Z" fill="#202020"/>
</svg>