<svg width="20" height="21" viewBox="0 0 20 21" fill="none" xmlns="http://www.w3.org/2000/svg">
<rect width="20" height="20" rx="10" transform="matrix(-1 0 0 1 20 0.59375)" fill="#229E45"/>
<path fill-rule="evenodd" clip-rule="evenodd" d="M9.96091 16.0364L1.58638 10.6011L10.0116 5.15112L18.4136 10.6142L9.96091 16.0364V16.0364Z" fill="#F8E509"/>
<path fill-rule="evenodd" clip-rule="evenodd" d="M6.31193 10.5939C6.31193 12.5474 7.89812 14.1311 9.85482 14.1311C11.8115 14.1311 13.3977 12.5474 13.3977 10.5939C13.3977 8.64031 11.8115 7.05664 9.85482 7.05664C7.89809 7.05664 6.3119 8.64031 6.3119 10.5939H6.31193Z" fill="#2B49A3"/>
<path fill-rule="evenodd" clip-rule="evenodd" d="M11.0194 12.7125L11.1289 12.6493L11.2426 12.7055L11.2172 12.5792L11.305 12.4866L11.1794 12.4719L11.1204 12.3585L11.0678 12.4758L10.9439 12.4983L11.0369 12.5852M8.64525 13.3137L8.7547 13.2505L8.86836 13.3067L8.84292 13.1803L8.9307 13.0878L8.80514 13.0731L8.7462 12.9597L8.69359 13.077L8.5697 13.0995L8.66261 13.1864M9.66859 12.3533L9.76314 12.2987L9.86136 12.3473L9.83936 12.2381L9.9152 12.1581L9.80675 12.1454L9.75581 12.0475L9.71036 12.1488L9.60334 12.1682L9.68361 12.2434M7.2707 12.0079L7.36353 11.9543L7.45997 12.0021L7.43839 11.8949L7.51284 11.8164L7.40636 11.8039L7.35636 11.7078L7.31172 11.8072L7.20664 11.8263L7.28545 11.9001M9.71192 11.289L9.82136 11.2259L9.93506 11.2821L9.90961 11.1557L9.99745 11.0632L9.87184 11.0485L9.81286 10.9351L9.76025 11.0523L9.63636 11.0748L9.72931 11.1618M12.6353 10.1915L12.7447 10.1283L12.8584 10.1846L12.833 10.0583L12.9208 9.96568L12.7952 9.95096L12.7363 9.83762L12.6836 9.95485L12.5598 9.97735L12.6527 10.0643M12.2837 11.6515L12.3931 11.5883L12.5069 11.6446L12.4814 11.5182L12.5692 11.4256L12.4436 11.4109L12.3847 11.2976L12.3321 11.4148L12.2082 11.4373L12.3011 11.5243M8.6357 9.65401L8.73236 9.59826L8.83281 9.64793L8.81031 9.53635L8.88792 9.45457L8.77697 9.44151L8.72489 9.34143L8.67842 9.44499L8.56897 9.46485L8.65106 9.54168M8.8362 10.6039L8.91231 10.56L8.99147 10.5991L8.9737 10.5112L9.03481 10.4467L8.94745 10.4365L8.90642 10.3577L8.86981 10.4392L8.78361 10.4549L8.84825 10.5154M12.7982 11.916L12.8713 11.8739L12.9472 11.9114L12.9303 11.8271L12.9889 11.7653L12.905 11.7554L12.8657 11.6798L12.8306 11.7581L12.7478 11.7731L12.8099 11.8311M7.25042 12.2523L7.30998 12.2208L7.37184 12.2489L7.35795 12.1858L7.40573 12.1395L7.33739 12.1322L7.30534 12.0756L7.27673 12.1341L7.20934 12.1453L7.25989 12.1888" fill="#FFFFEF"/>
<path fill-rule="evenodd" clip-rule="evenodd" d="M12.7982 11.9161L12.8713 11.8739L12.9472 11.9114L12.9303 11.8271L12.9889 11.7653L12.905 11.7554L12.8657 11.6798L12.8306 11.7581L12.7478 11.7731L12.8099 11.8311" fill="#FFFFEF"/>
<path fill-rule="evenodd" clip-rule="evenodd" d="M12.7982 11.9161L12.8713 11.8739L12.9472 11.9115L12.9303 11.8271L12.9889 11.7653L12.905 11.7555L12.8657 11.6798L12.8306 11.7581L12.7478 11.7731L12.8099 11.8312M11.6349 11.9158L11.7079 11.8736L11.7839 11.9112L11.7669 11.8268L11.8255 11.765L11.7416 11.7552L11.7023 11.6796L11.6672 11.7578L11.5844 11.7728L11.6465 11.8309M11.7794 12.3028L11.8525 12.2606L11.9284 12.2982L11.9114 12.2138L11.97 12.152L11.8862 12.1422L11.8469 12.0665L11.8117 12.1448L11.729 12.1598L11.7911 12.2178M9.36381 11.5983L9.43686 11.5561L9.51278 11.5937L9.49584 11.5094L9.55445 11.4476L9.47061 11.4378L9.43125 11.3621L9.39611 11.4403L9.31342 11.4553L9.37545 11.5134M10.0726 11.5981L10.1457 11.5559L10.2216 11.5934L10.2046 11.5091L10.2633 11.4473L10.1794 11.4375L10.1401 11.3618L10.1049 11.4401L10.0222 11.4551L10.0842 11.5131M11.9953 11.3509L12.0411 11.3245L12.0887 11.348L12.0781 11.2952L12.1148 11.2565L12.0623 11.2503L12.0376 11.2029L12.0156 11.2519L11.9638 11.2614L12.0027 11.2978M7.34053 12.5584L7.41359 12.5163L7.4895 12.5538L7.4725 12.4695L7.53111 12.4076L7.44731 12.3978L7.40795 12.3221L7.37284 12.4004L7.29011 12.4154L7.35214 12.4734M7.93081 12.6358L7.99131 12.6008L8.0542 12.6319L8.04011 12.5619L8.08867 12.5106L8.01922 12.5024L7.98661 12.4396L7.9575 12.5046L7.889 12.5171L7.94039 12.5653M7.65231 12.6291L7.7087 12.5965L7.76725 12.6255L7.75414 12.5604L7.79942 12.5126L7.7347 12.505L7.70434 12.4466L7.67723 12.5071L7.61345 12.5187L7.66131 12.5635M6.8527 11.9313L6.907 11.8999L6.96339 11.9278L6.95078 11.8651L6.99431 11.8192L6.932 11.8119L6.90275 11.7557L6.87664 11.8138L6.81525 11.8249L6.86131 11.8681M7.93775 13.0296L8.0087 12.9909L8.08236 13.0253L8.06586 12.9479L8.12281 12.8912L8.04142 12.8821L8.0032 12.8127L7.96911 12.8845L7.88884 12.8983L7.94903 12.9516M7.93378 13.3474L7.9985 13.3086L8.06567 13.3431L8.05061 13.2657L8.10256 13.2089L8.02831 13.1999L7.99345 13.1305L7.96234 13.2023L7.88914 13.2161L7.94406 13.2694M8.46986 12.6289L8.52417 12.5976L8.58061 12.6255L8.56798 12.5628L8.61153 12.5169L8.54925 12.5096L8.51998 12.4533L8.49386 12.5115L8.43239 12.5226L8.4785 12.5658M8.97242 12.6289L9.0267 12.5976L9.08309 12.6255L9.07047 12.5628L9.11409 12.5169L9.05175 12.5096L9.0225 12.4533L8.99639 12.5115L8.935 12.5226L8.98106 12.5658M9.82572 11.8828L9.88003 11.8514L9.93642 11.8793L9.92381 11.8166L9.96736 11.7707L9.90506 11.7633L9.87581 11.7071L9.8497 11.7653L9.78825 11.7764L9.83436 11.8196M9.73064 13.4036L9.77664 13.377L9.82442 13.4006L9.8137 13.3476L9.85064 13.3087L9.79786 13.3025L9.77306 13.2549L9.75098 13.3041L9.69892 13.3135L9.738 13.3501M11.0194 10.9437L11.1289 10.8805L11.2426 10.9368L11.2171 10.8104L11.305 10.7178L11.1794 10.7031L11.1204 10.5898L11.0678 10.707L10.9439 10.7295L11.0368 10.8165" fill="#FFFFEF"/>
<path fill-rule="evenodd" clip-rule="evenodd" d="M6.54536 11.8664C6.49136 11.7252 6.42175 11.5122 6.38472 11.3168C8.26644 9.6638 10.3642 8.817 13.0147 8.99125C13.1098 9.17342 13.1858 9.36411 13.25 9.5705C10.1094 9.27089 7.80733 10.6613 6.54528 11.8664L6.54536 11.8664Z" fill="white"/>
<path d="M7.39126 10.9371L7.32404 10.9738C7.3346 10.9977 7.33738 11.0186 7.33265 11.0363C7.32765 11.0543 7.31529 11.0699 7.29557 11.0832C7.27474 11.0975 7.25601 11.1038 7.23957 11.1021C7.2229 11.1005 7.21054 11.0936 7.20249 11.0817C7.19757 11.0748 7.19535 11.0662 7.19624 11.0578C7.19699 11.0494 7.20157 11.0394 7.20999 11.0279C7.21582 11.0201 7.22999 11.0037 7.25249 10.9785C7.28137 10.9463 7.2986 10.9192 7.30415 10.897C7.31193 10.8658 7.30721 10.8375 7.28999 10.812C7.27887 10.7956 7.26399 10.7834 7.24521 10.7754C7.22615 10.7673 7.2054 10.7655 7.18299 10.7699C7.16049 10.7742 7.13676 10.7849 7.11215 10.8016C7.07179 10.829 7.04743 10.8585 7.0391 10.8901C7.03062 10.9217 7.03585 10.9527 7.05479 10.983L7.12157 10.9418C7.11324 10.9233 7.11115 10.9073 7.11551 10.8939C7.1196 10.8804 7.13079 10.8675 7.14912 10.8551C7.1679 10.8423 7.18529 10.8362 7.20118 10.8367C7.20592 10.8367 7.21059 10.8378 7.21474 10.8401C7.2189 10.8424 7.22241 10.8457 7.22496 10.8497C7.23012 10.8574 7.23129 10.8661 7.22857 10.8759C7.22496 10.8884 7.21001 10.909 7.18343 10.9379C7.15696 10.9668 7.13887 10.9904 7.12926 11.0087C7.1194 11.0269 7.11493 11.0459 7.11587 11.0656C7.11651 11.0852 7.12376 11.1053 7.13749 11.1256C7.14987 11.1441 7.16737 11.1585 7.18782 11.1671C7.20893 11.1763 7.23143 11.1785 7.25551 11.1738C7.2794 11.1688 7.30535 11.1569 7.33324 11.1379C7.37385 11.1104 7.39879 11.0798 7.40787 11.0463C7.41682 11.0126 7.41135 10.9762 7.39121 10.9372L7.39126 10.9371ZM7.7101 10.7278L7.64143 10.7617C7.65101 10.786 7.65301 10.807 7.64754 10.8245C7.64176 10.8422 7.62887 10.8574 7.60865 10.8699C7.58712 10.8833 7.56824 10.8888 7.5519 10.8865C7.53524 10.8841 7.5231 10.8769 7.51562 10.8647C7.51096 10.8575 7.50908 10.8489 7.51035 10.8405C7.5114 10.8321 7.5164 10.8223 7.52535 10.8111C7.53146 10.8035 7.54618 10.7878 7.56971 10.7635C7.5999 10.7325 7.61821 10.706 7.62465 10.6841C7.63363 10.6532 7.63004 10.6248 7.61396 10.5986C7.60358 10.5819 7.58851 10.5685 7.57062 10.5603C7.5519 10.5515 7.53118 10.5488 7.50868 10.5522C7.48596 10.5557 7.46187 10.5653 7.4366 10.5811C7.39515 10.6068 7.36971 10.6353 7.36012 10.6665C7.3504 10.6978 7.35429 10.7289 7.37199 10.76L7.44043 10.7215C7.43279 10.7027 7.43135 10.6867 7.43626 10.6735C7.44093 10.6601 7.45265 10.6477 7.47137 10.636C7.49074 10.624 7.50832 10.6185 7.52415 10.6197C7.53443 10.6204 7.54212 10.6251 7.54743 10.6337C7.55221 10.6415 7.5531 10.6502 7.54993 10.6599C7.5459 10.6722 7.5301 10.6923 7.50243 10.7202C7.47482 10.7479 7.45576 10.7708 7.44543 10.7886C7.43488 10.8064 7.42965 10.8252 7.42979 10.8449C7.4296 10.8646 7.4361 10.8848 7.44896 10.9058C7.46065 10.9247 7.47753 10.9398 7.49757 10.9493C7.51829 10.9593 7.54079 10.9625 7.56499 10.9587C7.58901 10.9548 7.6154 10.9438 7.6441 10.926C7.68571 10.9001 7.71182 10.8706 7.72229 10.8374C7.73268 10.8041 7.72868 10.7676 7.71012 10.7279L7.7101 10.7278ZM8.10471 10.6221L7.9026 10.2897L7.65713 10.4402L7.69129 10.4964L7.8699 10.3869L7.91476 10.4606L7.74857 10.5625L7.7826 10.6185L7.94882 10.5166L8.00374 10.607L7.81882 10.7204L7.85293 10.7764L8.10468 10.622L8.10471 10.6221ZM8.67949 10.1501L8.64949 10.0917L8.49949 10.1694L8.57021 10.3072C8.59215 10.3138 8.61965 10.3155 8.65304 10.312C8.68519 10.3086 8.71644 10.2994 8.74518 10.2846C8.78129 10.2659 8.80879 10.2421 8.82785 10.2131C8.84668 10.1846 8.85614 10.1509 8.8549 10.1167C8.85369 10.0808 8.84442 10.0457 8.82776 10.0139C8.80932 9.97782 8.78526 9.94971 8.75582 9.92943C8.72646 9.90924 8.69332 9.89915 8.65665 9.89915C8.62865 9.8991 8.59821 9.90765 8.56526 9.9246C8.52243 9.94682 8.49368 9.97313 8.47904 10.0037C8.46404 10.0341 8.46132 10.067 8.47076 10.1024L8.54654 10.0796C8.54265 10.0601 8.54496 10.042 8.55349 10.0253C8.56171 10.0084 8.57588 9.99485 8.5959 9.98443C8.62637 9.96868 8.65551 9.96582 8.68354 9.97596C8.71132 9.98604 8.73493 10.0101 8.75449 10.0482C8.7756 10.0893 8.7824 10.1248 8.77476 10.1549C8.76707 10.1847 8.74854 10.2073 8.71899 10.2226C8.70443 10.2301 8.68843 10.2348 8.67093 10.2367C8.65315 10.2385 8.63704 10.2381 8.62224 10.2353L8.59974 10.1913L8.67951 10.1501L8.67949 10.1501ZM11.1862 9.52843L11.1297 9.14324L11.0138 9.16046L10.9826 9.4334L10.8754 9.18082L10.7591 9.19799L10.8155 9.58326L10.8875 9.57265L10.843 9.26938L10.9637 9.56138L11.0383 9.55032L11.0698 9.23588L11.1142 9.53907L11.1862 9.52846V9.52843ZM11.5781 9.48293L11.5418 9.09515L11.2555 9.12221L11.2616 9.18776L11.47 9.16815L11.478 9.25413L11.2842 9.27238L11.2903 9.33771L11.4842 9.31943L11.494 9.42499L11.2783 9.44527L11.2845 9.51065L11.5781 9.48293Z" fill="#309E3A"/>
<path d="M12.875 9.24043C12.8739 9.20071 12.8671 9.16765 12.8546 9.14099C12.8453 9.12149 12.8326 9.10378 12.8172 9.08865C12.8015 9.07332 12.7844 9.0621 12.766 9.05504C12.7415 9.0454 12.7135 9.04101 12.682 9.04185C12.6249 9.04351 12.5797 9.06251 12.5465 9.09899C12.5131 9.13551 12.4972 9.18549 12.4989 9.24885C12.5006 9.31163 12.5189 9.36043 12.554 9.39507C12.589 9.42951 12.6349 9.44601 12.6918 9.44443C12.7495 9.44288 12.7948 9.42399 12.8279 9.38785C12.861 9.35151 12.8767 9.30235 12.875 9.24043H12.875Z" fill="#309E3A"/>
<path d="M12.7941 9.2397C12.7953 9.28376 12.786 9.31748 12.7664 9.34089C12.7467 9.36414 12.7213 9.37617 12.6901 9.37701C12.6589 9.37784 12.633 9.36728 12.6124 9.34539C12.5918 9.32326 12.5808 9.28964 12.5796 9.24448C12.5784 9.19989 12.5873 9.16634 12.6062 9.14387C12.625 9.12137 12.6505 9.1097 12.6828 9.10881C12.7151 9.10798 12.7414 9.11839 12.7618 9.14014C12.7821 9.16173 12.7929 9.19492 12.7941 9.2397Z" fill="#F7FFFF"/>
<path d="M12.4152 9.44124L12.4106 9.05188L12.2458 9.05382C12.2043 9.05432 12.1743 9.05819 12.1557 9.06549C12.1369 9.07263 12.122 9.08521 12.1109 9.10327C12.0998 9.12132 12.0944 9.14174 12.0947 9.1648C12.095 9.19402 12.1039 9.21807 12.1212 9.23696C12.1386 9.25571 12.1643 9.26738 12.1984 9.27196C12.1816 9.28205 12.1677 9.29307 12.157 9.3051C12.146 9.31705 12.1314 9.3383 12.113 9.3688L12.0665 9.4453L12.1602 9.44419L12.2158 9.3588C12.2355 9.3283 12.249 9.30913 12.2563 9.30124C12.2637 9.29319 12.2715 9.28771 12.2797 9.28477C12.288 9.28171 12.3011 9.28005 12.3191 9.27985L12.3349 9.27963L12.3368 9.44219L12.4152 9.44127V9.44124Z" fill="#309E3A"/>
<path d="M12.334 9.21752L12.276 9.21819C12.2385 9.21863 12.215 9.21735 12.2056 9.21424C12.1962 9.21113 12.1888 9.20577 12.1835 9.19802C12.1781 9.19027 12.1753 9.1806 12.1752 9.16891C12.175 9.1558 12.1784 9.14521 12.1854 9.13719C12.1922 9.12896 12.2019 9.12369 12.2146 9.12144C12.221 9.12049 12.24 9.11977 12.2717 9.11944L12.3328 9.11871L12.334 9.21746L12.334 9.21752Z" fill="white"/>
<path d="M11.9721 9.07119L11.8291 9.07842C11.7969 9.08008 11.7724 9.08383 11.7558 9.08967C11.7338 9.0973 11.7143 9.11069 11.6992 9.12844C11.6839 9.14639 11.6726 9.16806 11.6654 9.19344C11.6582 9.21864 11.6555 9.24942 11.6573 9.28583C11.6589 9.31786 11.6643 9.34522 11.6734 9.36806C11.6846 9.39583 11.6995 9.41797 11.7184 9.43461C11.7326 9.44719 11.7514 9.45656 11.7749 9.46283C11.7924 9.46744 11.8157 9.469 11.8446 9.46756L11.9917 9.46006L11.9721 9.07117V9.07119Z" fill="#309E3A"/>
<path d="M11.897 9.14053L11.91 9.39814L11.8516 9.40106C11.8298 9.40222 11.8139 9.40175 11.8041 9.39978C11.7913 9.3972 11.7805 9.39234 11.7719 9.38517C11.763 9.37795 11.7555 9.36586 11.7494 9.34878C11.7432 9.33156 11.7394 9.30795 11.7378 9.27786C11.7363 9.24778 11.7378 9.22459 11.7423 9.20822C11.7467 9.19184 11.7535 9.17898 11.7626 9.16942C11.7716 9.15992 11.7834 9.15323 11.7978 9.14931C11.8087 9.14625 11.83 9.14395 11.8619 9.14236L11.897 9.1405L11.897 9.14053Z" fill="white"/>
<path d="M10.0658 9.76655L9.97521 9.38794L9.85299 9.41738C9.80671 9.42855 9.77696 9.43772 9.76382 9.44488C9.74355 9.45577 9.72843 9.47255 9.71843 9.49516C9.70843 9.51766 9.70705 9.54391 9.71421 9.57405C9.71977 9.59727 9.7286 9.61583 9.74082 9.62961C9.75299 9.64349 9.76671 9.65333 9.78193 9.65933C9.79693 9.66522 9.81149 9.66794 9.82555 9.66766C9.84457 9.66688 9.87138 9.66238 9.90582 9.65405L9.95544 9.64205L9.9896 9.78488L10.0658 9.76655H10.0658Z" fill="#309E3A"/>
<path d="M9.91422 9.47021L9.93994 9.57766L9.89827 9.58771C9.86822 9.59494 9.84772 9.59783 9.83666 9.59627C9.82607 9.59496 9.81615 9.59038 9.80829 9.58317C9.80042 9.57596 9.79498 9.56648 9.79275 9.55605C9.78941 9.54227 9.79072 9.52994 9.79664 9.5191C9.80247 9.50824 9.81185 9.49971 9.82322 9.49494C9.83189 9.49096 9.84989 9.48571 9.87739 9.4791L9.91416 9.47021H9.91422Z" fill="white"/>
<path d="M9.70532 9.87449L9.57643 9.50726L9.42093 9.56226C9.38182 9.5761 9.35463 9.58949 9.33935 9.6024C9.32379 9.61526 9.31371 9.63196 9.30899 9.6526C9.30427 9.67324 9.30566 9.6944 9.31332 9.7161C9.32299 9.74365 9.3391 9.7636 9.36154 9.7759C9.38393 9.78807 9.41202 9.79082 9.44577 9.78418C9.43307 9.79918 9.42349 9.81407 9.41715 9.8289C9.41054 9.84379 9.40354 9.86862 9.39591 9.90343L9.37635 9.99093L9.46468 9.95965L9.49004 9.86087C9.49899 9.8256 9.50566 9.8031 9.51004 9.79324C9.51443 9.78324 9.52004 9.77551 9.52691 9.77007C9.53374 9.76446 9.5456 9.75868 9.56263 9.75265L9.57752 9.74732L9.63135 9.90065L9.70524 9.87449H9.70532Z" fill="#309E3A"/>
<path d="M9.55722 9.6889L9.50258 9.7082C9.46714 9.72076 9.44453 9.72709 9.43467 9.72718C9.42481 9.72731 9.41606 9.72459 9.40847 9.71898C9.40092 9.71343 9.3952 9.70509 9.39136 9.69409C9.38706 9.68173 9.38686 9.67062 9.39089 9.66076C9.39464 9.65076 9.40222 9.6427 9.41347 9.63643C9.4192 9.63348 9.437 9.6267 9.46692 9.61615L9.52456 9.5957L9.55725 9.68893L9.55722 9.6889Z" fill="white"/>
<path d="M9.24968 9.8604C9.2379 9.82254 9.2224 9.79251 9.20321 9.7704C9.18898 9.75411 9.17198 9.74047 9.15298 9.73012C9.13365 9.71965 9.11418 9.71351 9.0946 9.71165C9.06848 9.70907 9.04034 9.71248 9.01021 9.72193C8.95562 9.73898 8.91732 9.76962 8.89521 9.81382C8.8729 9.85807 8.87112 9.91048 8.88993 9.97098C8.90854 10.031 8.93937 10.0729 8.98243 10.0968C9.02543 10.1204 9.07415 10.1237 9.12854 10.1067C9.1836 10.0895 9.22215 10.059 9.24421 10.0152C9.26623 9.9712 9.26804 9.91962 9.24965 9.86046L9.24968 9.8604Z" fill="#309E3A"/>
<path d="M9.17153 9.88223C9.18458 9.92429 9.18486 9.95926 9.17225 9.98718C9.15961 10.0148 9.13836 10.0334 9.10856 10.0427C9.07875 10.052 9.05106 10.0489 9.02533 10.0334C8.99945 10.0178 8.97978 9.9884 8.96639 9.94529C8.95317 9.90265 8.95264 9.86798 8.96483 9.84112C8.97683 9.8144 8.99828 9.79618 9.02908 9.78657C9.05992 9.77693 9.08806 9.77982 9.11353 9.79523C9.13895 9.81046 9.15825 9.83946 9.17158 9.88226L9.17153 9.88223Z" fill="white"/>
<path d="M8.49146 10.4027L8.31326 10.0568L8.16687 10.1328C8.13004 10.152 8.10493 10.1689 8.09159 10.1839C8.07798 10.1987 8.07026 10.2167 8.0684 10.2378C8.06654 10.2589 8.07095 10.2796 8.08145 10.3001C8.09479 10.326 8.11348 10.3435 8.13748 10.3527C8.16137 10.3616 8.18948 10.3604 8.22201 10.3491C8.21151 10.3657 8.20409 10.3819 8.19979 10.3974C8.1954 10.4131 8.19179 10.4387 8.18904 10.4742L8.18176 10.5635L8.2649 10.5203L8.27643 10.419C8.28046 10.3827 8.28393 10.3595 8.28693 10.3492C8.28984 10.3387 8.29443 10.3302 8.30045 10.3239C8.3064 10.3174 8.3174 10.31 8.3334 10.3017L8.34748 10.2944L8.42184 10.4388L8.49143 10.4027H8.49146Z" fill="#309E3A"/>
<path d="M8.31928 10.2389L8.26781 10.2657C8.23448 10.283 8.21289 10.2924 8.20309 10.2939C8.19336 10.2954 8.18434 10.2939 8.17606 10.2894C8.16784 10.2849 8.16106 10.2775 8.1557 10.2671C8.1497 10.2554 8.14803 10.2445 8.15059 10.2341C8.153 10.2237 8.15934 10.2146 8.16961 10.2069C8.17489 10.2032 8.19156 10.194 8.21984 10.1793L8.27406 10.1512L8.31934 10.239L8.31928 10.2389Z" fill="white"/>
<path d="M7.05258 11.1133C7.03044 11.0804 7.00697 11.0562 6.98214 11.0405C6.96383 11.0291 6.94365 11.021 6.92253 11.0166C6.90242 11.0122 6.88163 11.0119 6.86142 11.0158C6.83558 11.0209 6.80964 11.0324 6.7835 11.0501C6.73617 11.0822 6.70828 11.1227 6.69978 11.1714C6.69117 11.2202 6.70458 11.2708 6.74 11.3234C6.77508 11.3754 6.81661 11.4067 6.86467 11.417C6.91267 11.4271 6.96022 11.4162 7.00744 11.3842C7.05517 11.3517 7.08333 11.3113 7.09189 11.263C7.10031 11.2145 7.08722 11.1646 7.05264 11.1133L7.05258 11.1133Z" fill="#309E3A"/>
<path d="M6.9839 11.1564C7.00851 11.1929 7.01878 11.2263 7.01478 11.2567C7.01062 11.2869 6.99562 11.3107 6.96978 11.3283C6.9439 11.3458 6.91645 11.3509 6.88737 11.3435C6.85806 11.336 6.83078 11.3136 6.80559 11.2762C6.7807 11.2392 6.77023 11.2062 6.7742 11.177C6.77803 11.1479 6.79331 11.1242 6.82004 11.1061C6.84676 11.0879 6.87454 11.0825 6.90337 11.0899C6.93206 11.0971 6.95887 11.1193 6.98392 11.1564H6.9839Z" fill="white"/>
<path d="M10.5049 9.60829L10.4424 9.33496L10.2405 9.38149L10.251 9.42766L10.3979 9.39385L10.4119 9.45441L10.2751 9.48596L10.2857 9.53193L10.4223 9.50049L10.4394 9.57485L10.2873 9.60985L10.2978 9.65596L10.5049 9.60829Z" fill="#309E3A"/>
</svg>
