<svg width="20" height="21" viewBox="0 0 20 21" fill="none" xmlns="http://www.w3.org/2000/svg">
<g id="Brazil">
<rect width="20" height="20" rx="10" transform="matrix(-1 0 0 1 20 0.59375)" fill="#229E45"/>
<g id="Group">
<path id="Vector" fill-rule="evenodd" clip-rule="evenodd" d="M18.8889 3.92725H1.11114V17.2606H18.8889V3.92725Z" fill="#229E45"/>
<path id="Vector_2" fill-rule="evenodd" clip-rule="evenodd" d="M9.96097 16.0366L1.58644 10.6014L10.0117 5.15137L18.4136 10.6144L9.96097 16.0366V16.0366Z" fill="#F8E509"/>
<path id="Vector_3" fill-rule="evenodd" clip-rule="evenodd" d="M6.31199 10.5939C6.31199 12.5474 7.89818 14.1311 9.85488 14.1311C11.8116 14.1311 13.3978 12.5474 13.3978 10.5939C13.3978 8.64031 11.8115 7.05664 9.85488 7.05664C7.89815 7.05664 6.31196 8.64031 6.31196 10.5939H6.31199Z" fill="#2B49A3"/>
<path id="Vector_4" fill-rule="evenodd" clip-rule="evenodd" d="M11.0195 12.7128L11.129 12.6497L11.2427 12.7059L11.2172 12.5795L11.3051 12.487L11.1795 12.4722L11.1205 12.3589L11.0679 12.4761L10.944 12.4986L11.0369 12.5856M8.64531 13.314L8.75476 13.2509L8.86842 13.3071L8.84298 13.1807L8.93076 13.0882L8.8052 13.0734L8.74626 12.9601L8.69365 13.0773L8.56976 13.0998L8.66268 13.1868M9.66865 12.3536L9.7632 12.2991L9.86143 12.3476L9.83942 12.2385L9.91526 12.1585L9.80681 12.1458L9.75587 12.0479L9.71043 12.1492L9.6034 12.1686L9.68367 12.2437M7.27076 12.0083L7.36359 11.9547L7.46004 12.0024L7.43845 11.8953L7.5129 11.8167L7.40642 11.8042L7.35642 11.7081L7.31179 11.8076L7.2067 11.8266L7.28551 11.9004M9.71198 11.2894L9.82143 11.2262L9.93512 11.2825L9.90968 11.1561L9.99751 11.0635L9.8719 11.0488L9.81293 10.9355L9.76031 11.0527L9.63643 11.0752L9.72937 11.1622M12.6353 10.1919L12.7448 10.1287L12.8585 10.185L12.833 10.0586L12.9208 9.96605L12.7953 9.95132L12.7363 9.83799L12.6837 9.95521L12.5598 9.97771L12.6527 10.0647M12.2838 11.6519L12.3932 11.5887L12.5069 11.6449L12.4815 11.5186L12.5693 11.426L12.4437 11.4113L12.3847 11.2979L12.3321 11.4152L12.2082 11.4377L12.3011 11.5247M8.63576 9.65438L8.73242 9.59863L8.83287 9.6483L8.81037 9.53671L8.88798 9.45494L8.77704 9.44188L8.72495 9.3418L8.67848 9.44535L8.56904 9.46521L8.65112 9.54205M8.83626 10.6043L8.91237 10.5603L8.99154 10.5994L8.97376 10.5115L9.03487 10.4471L8.94751 10.4369L8.90648 10.358L8.86987 10.4396L8.78367 10.4552L8.84831 10.5158M12.7983 11.9164L12.8713 11.8742L12.9473 11.9118L12.9303 11.8274L12.989 11.7656L12.9051 11.7558L12.8657 11.6802L12.8306 11.7584L12.7479 11.7734L12.8099 11.8315M7.25048 12.2527L7.31004 12.2212L7.3719 12.2492L7.35801 12.1862L7.40579 12.1399L7.33745 12.1325L7.3054 12.0759L7.27679 12.1345L7.2094 12.1457L7.25995 12.1891" fill="#FFFFEF"/>
<path id="Vector_5" fill-rule="evenodd" clip-rule="evenodd" d="M12.7983 11.9164L12.8713 11.8743L12.9473 11.9118L12.9303 11.8275L12.989 11.7656L12.9051 11.7558L12.8657 11.6802L12.8306 11.7585L12.7479 11.7735L12.8099 11.8315" fill="#FFFFEF"/>
<path id="Vector_6" fill-rule="evenodd" clip-rule="evenodd" d="M12.7983 11.9161L12.8713 11.874L12.9473 11.9115L12.9303 11.8272L12.989 11.7654L12.9051 11.7555L12.8657 11.6799L12.8306 11.7582L12.7479 11.7732L12.8099 11.8312M11.635 11.9159L11.708 11.8737L11.7839 11.9113L11.767 11.8269L11.8256 11.7651L11.7417 11.7553L11.7024 11.6796L11.6672 11.7579L11.5845 11.7729L11.6465 11.831M11.7795 12.3029L11.8525 12.2607L11.9285 12.2983L11.9115 12.2139L11.9701 12.1521L11.8863 12.1422L11.8469 12.0666L11.8118 12.1448L11.7291 12.1598L11.7911 12.2179M9.36387 11.5984L9.43692 11.5562L9.51284 11.5938L9.4959 11.5094L9.55451 11.4476L9.47067 11.4378L9.43131 11.3621L9.39617 11.4404L9.31348 11.4554L9.37551 11.5135M10.0727 11.5981L10.1458 11.556L10.2217 11.5935L10.2047 11.5091L10.2633 11.4473L10.1795 11.4375L10.1401 11.3619L10.105 11.4401L10.0222 11.4551L10.0843 11.5132M11.9954 11.351L12.0412 11.3246L12.0888 11.3481L12.0781 11.2953L12.1149 11.2565L12.0624 11.2504L12.0376 11.203L12.0156 11.252L11.9639 11.2615L12.0028 11.2978M7.34059 12.5585L7.41365 12.5163L7.48956 12.5538L7.47256 12.4695L7.53118 12.4077L7.44737 12.3979L7.40801 12.3222L7.3729 12.4005L7.29017 12.4155L7.3522 12.4735M7.93087 12.6358L7.99137 12.6008L8.05426 12.632L8.04017 12.562L8.08873 12.5106L8.01929 12.5025L7.98668 12.4396L7.95756 12.5046L7.88906 12.5171L7.94045 12.5653M7.65237 12.6291L7.70876 12.5965L7.76731 12.6255L7.7542 12.5604L7.79948 12.5127L7.73476 12.5051L7.7044 12.4467L7.67729 12.5071L7.61351 12.5187L7.66137 12.5636M6.85276 11.9313L6.90706 11.9L6.96345 11.9279L6.95084 11.8652L6.99437 11.8192L6.93206 11.812L6.90281 11.7557L6.8767 11.8138L6.81531 11.825L6.86137 11.8681M7.93781 13.0297L8.00876 12.9909L8.08243 13.0254L8.06593 12.948L8.12287 12.8912L8.04148 12.8822L8.00326 12.8128L7.96917 12.8846L7.8889 12.8984L7.94909 12.9517M7.93384 13.3475L7.99856 13.3087L8.06573 13.3431L8.05067 13.2658L8.10262 13.209L8.02837 13.2L7.99351 13.1305L7.9624 13.2024L7.8892 13.2161L7.94412 13.2694M8.46992 12.629L8.52423 12.5976L8.58068 12.6256L8.56804 12.5629L8.61159 12.517L8.54931 12.5096L8.52004 12.4534L8.49392 12.5115L8.43245 12.5227L8.47856 12.5659M8.97248 12.629L9.02676 12.5976L9.08315 12.6256L9.07054 12.5629L9.11415 12.517L9.05181 12.5096L9.02256 12.4534L8.99645 12.5115L8.93506 12.5227L8.98112 12.5659M9.82579 11.8828L9.88009 11.8515L9.93648 11.8794L9.92387 11.8167L9.96742 11.7707L9.90512 11.7634L9.87587 11.7072L9.84976 11.7653L9.78831 11.7765L9.83442 11.8196M9.7307 13.4036L9.7767 13.3771L9.82448 13.4007L9.81376 13.3476L9.8507 13.3088L9.79792 13.3026L9.77312 13.2549L9.75104 13.3041L9.69898 13.3136L9.73806 13.3501M11.0195 10.9438L11.129 10.8806L11.2427 10.9368L11.2172 10.8105L11.305 10.7179L11.1795 10.7032L11.1205 10.5898L11.0679 10.7071L10.944 10.7296L11.0369 10.8166" fill="#FFFFEF"/>
<path id="Vector_7" fill-rule="evenodd" clip-rule="evenodd" d="M6.54536 11.8664C6.49136 11.7252 6.42175 11.5122 6.38472 11.3167C8.26644 9.66374 10.3642 8.81694 13.0147 8.99119C13.1098 9.17335 13.1858 9.36405 13.25 9.57044C10.1094 9.27083 7.80733 10.6613 6.54528 11.8664L6.54536 11.8664Z" fill="white"/>
<path id="Vector_8" d="M7.39126 10.9372L7.32404 10.9739C7.3346 10.9977 7.33738 11.0186 7.33265 11.0364C7.32765 11.0543 7.31529 11.07 7.29557 11.0833C7.27474 11.0976 7.25601 11.1039 7.23957 11.1022C7.2229 11.1005 7.21054 11.0937 7.20249 11.0818C7.19757 11.0748 7.19535 11.0663 7.19624 11.0578C7.19699 11.0495 7.20157 11.0395 7.20999 11.028C7.21582 11.0202 7.22999 11.0037 7.25249 10.9786C7.28137 10.9464 7.2986 10.9192 7.30415 10.897C7.31193 10.8659 7.30721 10.8376 7.28999 10.812C7.27887 10.7957 7.26399 10.7834 7.24521 10.7754C7.22615 10.7674 7.2054 10.7656 7.18299 10.7699C7.16049 10.7743 7.13676 10.7849 7.11215 10.8017C7.07179 10.8291 7.04743 10.8586 7.0391 10.8901C7.03062 10.9217 7.03585 10.9527 7.05479 10.983L7.12157 10.9418C7.11324 10.9234 7.11115 10.9074 7.11551 10.894C7.1196 10.8805 7.13079 10.8676 7.14912 10.8552C7.1679 10.8424 7.18529 10.8362 7.20118 10.8367C7.20592 10.8367 7.21059 10.8379 7.21474 10.8402C7.2189 10.8425 7.22241 10.8457 7.22496 10.8497C7.23012 10.8574 7.23129 10.8661 7.22857 10.8759C7.22496 10.8884 7.21001 10.9091 7.18343 10.938C7.15696 10.9669 7.13887 10.9905 7.12926 11.0087C7.1194 11.027 7.11493 11.046 7.11587 11.0657C7.11651 11.0853 7.12376 11.1053 7.13749 11.1257C7.14987 11.1441 7.16737 11.1585 7.18782 11.1672C7.20893 11.1763 7.23143 11.1786 7.25551 11.1738C7.2794 11.1689 7.30535 11.157 7.33324 11.138C7.37385 11.1104 7.39879 11.0799 7.40787 11.0463C7.41682 11.0126 7.41135 10.9762 7.39121 10.9373L7.39126 10.9372ZM7.7101 10.7279L7.64143 10.7618C7.65101 10.786 7.65301 10.807 7.64754 10.8246C7.64176 10.8423 7.62887 10.8574 7.60865 10.87C7.58712 10.8834 7.56824 10.8889 7.5519 10.8865C7.53524 10.8842 7.5231 10.8769 7.51562 10.8647C7.51096 10.8576 7.50908 10.849 7.51035 10.8405C7.5114 10.8322 7.5164 10.8224 7.52535 10.8112C7.53146 10.8036 7.54618 10.7878 7.56971 10.7636C7.5999 10.7325 7.61821 10.7061 7.62465 10.6841C7.63363 10.6533 7.63004 10.6249 7.61396 10.5987C7.60358 10.5819 7.58851 10.5686 7.57062 10.5603C7.5519 10.5515 7.53118 10.5489 7.50868 10.5523C7.48596 10.5558 7.46187 10.5654 7.4366 10.5812C7.39515 10.6069 7.36971 10.6354 7.36012 10.6665C7.3504 10.6978 7.35429 10.729 7.37199 10.76L7.44043 10.7215C7.43279 10.7028 7.43135 10.6868 7.43626 10.6735C7.44093 10.6602 7.45265 10.6477 7.47137 10.636C7.49074 10.624 7.50832 10.6186 7.52415 10.6198C7.53443 10.6205 7.54212 10.6252 7.54743 10.6338C7.55221 10.6416 7.5531 10.6503 7.54993 10.66C7.5459 10.6723 7.5301 10.6924 7.50243 10.7202C7.47482 10.748 7.45576 10.7708 7.44543 10.7887C7.43488 10.8065 7.42965 10.8253 7.42979 10.845C7.4296 10.8647 7.4361 10.8849 7.44896 10.9059C7.46065 10.9248 7.47753 10.9399 7.49757 10.9494C7.51829 10.9594 7.54079 10.9625 7.56499 10.9587C7.58901 10.9548 7.6154 10.9438 7.6441 10.9261C7.68571 10.9002 7.71182 10.8706 7.72229 10.8375C7.73268 10.8041 7.72868 10.7676 7.71012 10.7279L7.7101 10.7279ZM8.10471 10.6222L7.9026 10.2898L7.65713 10.4402L7.69129 10.4965L7.8699 10.387L7.91476 10.4607L7.74857 10.5625L7.7826 10.6185L7.94882 10.5167L8.00374 10.6071L7.81882 10.7204L7.85293 10.7765L8.10468 10.6221L8.10471 10.6222ZM8.67949 10.1501L8.64949 10.0918L8.49949 10.1695L8.57021 10.3073C8.59215 10.3139 8.61965 10.3155 8.65304 10.312C8.68519 10.3087 8.71644 10.2994 8.74518 10.2846C8.78129 10.2659 8.80879 10.2422 8.82785 10.2132C8.84668 10.1847 8.85614 10.151 8.8549 10.1168C8.85369 10.0809 8.84442 10.0458 8.82776 10.0139C8.80932 9.97788 8.78526 9.94977 8.75582 9.92949C8.72646 9.9093 8.69332 9.89921 8.65665 9.89921C8.62865 9.89916 8.59821 9.90771 8.56526 9.92466C8.52243 9.94688 8.49368 9.97319 8.47904 10.0037C8.46404 10.0342 8.46132 10.067 8.47076 10.1025L8.54654 10.0797C8.54265 10.0602 8.54496 10.042 8.55349 10.0253C8.56171 10.0085 8.57588 9.99491 8.5959 9.98449C8.62637 9.96874 8.65551 9.96588 8.68354 9.97602C8.71132 9.9861 8.73493 10.0102 8.75449 10.0482C8.7756 10.0894 8.7824 10.1249 8.77476 10.155C8.76707 10.1848 8.74854 10.2074 8.71899 10.2227C8.70443 10.2302 8.68843 10.2349 8.67093 10.2367C8.65315 10.2386 8.63704 10.2381 8.62224 10.2354L8.59974 10.1914L8.67951 10.1502L8.67949 10.1501ZM11.1862 9.52849L11.1297 9.1433L11.0138 9.16052L10.9826 9.43346L10.8754 9.18088L10.7591 9.19805L10.8155 9.58333L10.8875 9.57271L10.843 9.26944L10.9637 9.56144L11.0383 9.55038L11.0698 9.23594L11.1142 9.53913L11.1862 9.52852V9.52849ZM11.5781 9.48299L11.5418 9.09521L11.2555 9.12227L11.2616 9.18783L11.47 9.16821L11.478 9.25419L11.2842 9.27244L11.2903 9.33777L11.4842 9.31949L11.494 9.42505L11.2783 9.44533L11.2845 9.51071L11.5781 9.48299Z" fill="#309E3A"/>
<g id="Group_2">
<path id="Vector_9" d="M12.875 9.24068C12.8739 9.20095 12.8671 9.1679 12.8546 9.14123C12.8453 9.12173 12.8326 9.10402 12.8172 9.0889C12.8015 9.07356 12.7844 9.06234 12.766 9.05529C12.7415 9.04565 12.7135 9.04126 12.682 9.04209C12.6249 9.04376 12.5797 9.06276 12.5465 9.09923C12.5131 9.13576 12.4972 9.18573 12.4989 9.24909C12.5006 9.31187 12.5189 9.36068 12.554 9.39531C12.589 9.42976 12.6349 9.44626 12.6918 9.44468C12.7495 9.44312 12.7948 9.42423 12.8279 9.38809C12.861 9.35176 12.8767 9.30259 12.875 9.24068H12.875Z" fill="#309E3A"/>
<path id="Vector_10" d="M12.7941 9.23982C12.7953 9.28388 12.786 9.3176 12.7664 9.34102C12.7467 9.36427 12.7213 9.37629 12.6901 9.37713C12.6589 9.37796 12.633 9.36741 12.6124 9.34552C12.5918 9.32338 12.5808 9.28977 12.5796 9.2446C12.5784 9.20002 12.5873 9.16646 12.6062 9.14399C12.625 9.12149 12.6505 9.10982 12.6828 9.10893C12.7151 9.1081 12.7414 9.11852 12.7618 9.14027C12.7821 9.16185 12.7929 9.19504 12.7941 9.23982Z" fill="#F7FFFF"/>
</g>
<g id="Group_3">
<path id="Vector_11" d="M12.4153 9.44161L12.4108 9.05225L12.246 9.05419C12.2045 9.05469 12.1744 9.05855 12.1558 9.06586C12.137 9.073 12.1221 9.08558 12.111 9.10364C12.0999 9.12169 12.0946 9.14211 12.0948 9.16516C12.0952 9.19439 12.104 9.21844 12.1214 9.23733C12.1387 9.25608 12.1644 9.26775 12.1985 9.27233C12.1817 9.28241 12.1678 9.29344 12.1571 9.30547C12.1461 9.31741 12.1315 9.33866 12.1131 9.36916L12.0666 9.44566L12.1603 9.44455L12.2159 9.35916C12.2356 9.32866 12.2492 9.3095 12.2564 9.30161C12.2638 9.29355 12.2716 9.28808 12.2798 9.28514C12.2881 9.28208 12.3012 9.28041 12.3192 9.28022L12.3351 9.28L12.337 9.44255L12.4153 9.44164V9.44161Z" fill="#309E3A"/>
<path id="Vector_12" d="M12.334 9.21795L12.2761 9.21861C12.2385 9.21906 12.215 9.21778 12.2057 9.21467C12.1963 9.21156 12.1889 9.2062 12.1835 9.19845C12.1782 9.1907 12.1754 9.18103 12.1752 9.16934C12.1751 9.15622 12.1785 9.14564 12.1855 9.13761C12.1922 9.12939 12.202 9.12411 12.2147 9.12186C12.221 9.12092 12.2401 9.1202 12.2718 9.11986L12.3329 9.11914L12.334 9.21789L12.334 9.21795Z" fill="white"/>
</g>
<g id="Group_4">
<path id="Vector_13" d="M11.9721 9.07132L11.8292 9.07854C11.797 9.08021 11.7725 9.08396 11.7558 9.08979C11.7339 9.09742 11.7143 9.11081 11.6993 9.12857C11.6839 9.14651 11.6727 9.16818 11.6655 9.19357C11.6582 9.21876 11.6556 9.24954 11.6574 9.28596C11.659 9.31798 11.6644 9.34534 11.6735 9.36818C11.6846 9.39596 11.6996 9.41809 11.7185 9.43473C11.7326 9.44732 11.7515 9.45668 11.775 9.46296C11.7925 9.46757 11.8157 9.46912 11.8447 9.46768L11.9918 9.46018L11.9721 9.07129V9.07132Z" fill="#309E3A"/>
<path id="Vector_14" d="M11.8971 9.14065L11.9101 9.39826L11.8517 9.40118C11.8298 9.40235 11.814 9.40187 11.8042 9.3999C11.7914 9.39732 11.7806 9.39246 11.772 9.38529C11.7631 9.37807 11.7556 9.36599 11.7495 9.3489C11.7433 9.33168 11.7395 9.30807 11.7379 9.27799C11.7363 9.2479 11.7379 9.22471 11.7423 9.20835C11.7468 9.19196 11.7536 9.1791 11.7626 9.16954C11.7717 9.16004 11.7835 9.15335 11.7979 9.14943C11.8087 9.14638 11.83 9.14407 11.862 9.14249L11.8971 9.14062L11.8971 9.14065Z" fill="white"/>
</g>
<g id="Group_5">
<path id="Vector_15" d="M10.0659 9.76679L9.97533 9.38818L9.85311 9.41763C9.80683 9.42879 9.77708 9.43796 9.76395 9.44513C9.74367 9.45602 9.72856 9.47279 9.71856 9.49541C9.70856 9.51791 9.70717 9.54416 9.71433 9.57429C9.71989 9.59752 9.72872 9.61607 9.74095 9.62985C9.75311 9.64374 9.76683 9.65357 9.78206 9.65957C9.79706 9.66546 9.81161 9.66818 9.82567 9.66791C9.8447 9.66713 9.8715 9.66263 9.90595 9.65429L9.95556 9.6423L9.98972 9.78513L10.0659 9.76679H10.0659Z" fill="#309E3A"/>
<path id="Vector_16" d="M9.91434 9.4707L9.94006 9.57815L9.8984 9.5882C9.86834 9.59543 9.84784 9.59831 9.83679 9.59676C9.8262 9.59544 9.81628 9.59087 9.80841 9.58366C9.80054 9.57645 9.79511 9.56697 9.79287 9.55654C9.78954 9.54276 9.79084 9.53043 9.79676 9.51959C9.80259 9.50873 9.81198 9.5002 9.82334 9.49543C9.83201 9.49145 9.85001 9.4862 9.87751 9.47959L9.91429 9.4707H9.91434Z" fill="white"/>
</g>
<g id="Group_6">
<path id="Vector_17" d="M9.70538 9.87455L9.57649 9.50732L9.42099 9.56232C9.38188 9.57616 9.35469 9.58955 9.33941 9.60246C9.32386 9.61532 9.31377 9.63202 9.30905 9.65266C9.30433 9.6733 9.30572 9.69446 9.31338 9.71616C9.32305 9.74371 9.33916 9.76366 9.36161 9.77596C9.38399 9.78813 9.41208 9.79088 9.44583 9.78424C9.43313 9.79924 9.42355 9.81413 9.41722 9.82896C9.4106 9.84385 9.40361 9.86869 9.39597 9.90349L9.37641 9.99099L9.46474 9.95971L9.49011 9.86094C9.49905 9.82566 9.50572 9.80316 9.51011 9.7933C9.51449 9.7833 9.52011 9.77557 9.52697 9.77013C9.5338 9.76452 9.54566 9.75874 9.56269 9.75271L9.57758 9.74738L9.63141 9.90071L9.7053 9.87455H9.70538Z" fill="#309E3A"/>
<path id="Vector_18" d="M9.55728 9.6889L9.50265 9.7082C9.4672 9.72076 9.44459 9.72709 9.43473 9.72718C9.42487 9.72731 9.41612 9.72459 9.40853 9.71898C9.40098 9.71343 9.39526 9.70509 9.39142 9.69409C9.38712 9.68173 9.38692 9.67062 9.39095 9.66076C9.3947 9.65076 9.40228 9.6427 9.41353 9.63643C9.41926 9.63348 9.43706 9.6267 9.46698 9.61615L9.52462 9.5957L9.55731 9.68893L9.55728 9.6889Z" fill="white"/>
</g>
<g id="Group_7">
<path id="Vector_19" d="M9.24974 9.86052C9.23796 9.82266 9.22246 9.79263 9.20327 9.77052C9.18904 9.75423 9.17204 9.74059 9.15305 9.73024C9.13371 9.71977 9.11424 9.71363 9.09466 9.71177C9.06855 9.70919 9.04041 9.71261 9.01027 9.72205C8.95568 9.73911 8.91738 9.76974 8.89527 9.81394C8.87296 9.85819 8.87118 9.9106 8.88999 9.9711C8.9086 10.0312 8.93943 10.073 8.98249 10.0969C9.02549 10.1205 9.07421 10.1238 9.1286 10.1068C9.18366 10.0896 9.22221 10.0591 9.24427 10.0153C9.2663 9.97133 9.2681 9.91974 9.24971 9.86058L9.24974 9.86052Z" fill="#309E3A"/>
<path id="Vector_20" d="M9.17153 9.88248C9.18458 9.92453 9.18486 9.95951 9.17225 9.98742C9.15961 10.0151 9.13836 10.0336 9.10856 10.043C9.07875 10.0523 9.05106 10.0492 9.02533 10.0336C8.99945 10.018 8.97978 9.98865 8.96639 9.94553C8.95317 9.9029 8.95264 9.86823 8.96483 9.84137C8.97683 9.81465 8.99828 9.79642 9.02908 9.78681C9.05992 9.77717 9.08806 9.78006 9.11353 9.79548C9.13895 9.8107 9.15825 9.8397 9.17158 9.88251L9.17153 9.88248Z" fill="white"/>
</g>
<g id="Group_8">
<path id="Vector_21" d="M8.49158 10.403L8.31338 10.0571L8.16699 10.1331C8.13016 10.1523 8.10505 10.1692 8.09172 10.1842C8.0781 10.199 8.07038 10.217 8.06852 10.2381C8.06666 10.2592 8.07108 10.2799 8.08158 10.3004C8.09491 10.3264 8.1136 10.3439 8.1376 10.353C8.16149 10.3619 8.1896 10.3607 8.22213 10.3494C8.21163 10.366 8.20422 10.3822 8.19991 10.3977C8.19552 10.4134 8.19191 10.439 8.18916 10.4745L8.18188 10.5638L8.26502 10.5206L8.27655 10.4193C8.28058 10.383 8.28405 10.3598 8.28705 10.3495C8.28997 10.339 8.29455 10.3305 8.30058 10.3242C8.30652 10.3177 8.31752 10.3103 8.33352 10.302L8.3476 10.2947L8.42197 10.4391L8.49155 10.403H8.49158Z" fill="#309E3A"/>
<path id="Vector_22" d="M8.3194 10.2391L8.26793 10.2658C8.2346 10.2832 8.21301 10.2926 8.20321 10.2941C8.19349 10.2956 8.18446 10.2941 8.17618 10.2896C8.16796 10.2851 8.16118 10.2777 8.15582 10.2673C8.14982 10.2556 8.14815 10.2446 8.15071 10.2343C8.15313 10.2239 8.15946 10.2148 8.16974 10.2071C8.17501 10.2034 8.19168 10.1942 8.21996 10.1795L8.27418 10.1514L8.31946 10.2391L8.3194 10.2391Z" fill="white"/>
</g>
<g id="Group_9">
<path id="Vector_23" d="M7.05258 11.1134C7.03044 11.0806 7.00697 11.0563 6.98214 11.0406C6.96383 11.0292 6.94365 11.0211 6.92253 11.0167C6.90242 11.0123 6.88163 11.012 6.86142 11.0159C6.83558 11.021 6.80964 11.0325 6.7835 11.0502C6.73617 11.0823 6.70828 11.1228 6.69978 11.1715C6.69117 11.2203 6.70458 11.271 6.74 11.3235C6.77508 11.3755 6.81661 11.4068 6.86467 11.4171C6.91267 11.4273 6.96022 11.4163 7.00744 11.3843C7.05517 11.3518 7.08333 11.3115 7.09189 11.2631C7.10031 11.2146 7.08722 11.1647 7.05264 11.1134L7.05258 11.1134Z" fill="#309E3A"/>
<path id="Vector_24" d="M6.9839 11.1566C7.00851 11.1932 7.01878 11.2266 7.01478 11.2569C7.01062 11.2871 6.99562 11.3109 6.96978 11.3285C6.9439 11.3461 6.91645 11.3512 6.88737 11.3438C6.85806 11.3363 6.83078 11.3139 6.80559 11.2764C6.7807 11.2395 6.77023 11.2064 6.7742 11.1772C6.77803 11.1481 6.79331 11.1245 6.82004 11.1063C6.84676 11.0882 6.87454 11.0827 6.90337 11.0901C6.93206 11.0973 6.95887 11.1196 6.98392 11.1566H6.9839Z" fill="white"/>
</g>
<path id="Vector_25" d="M10.5049 9.60829L10.4424 9.33496L10.2405 9.38149L10.251 9.42766L10.3979 9.39385L10.4119 9.45441L10.2751 9.48596L10.2857 9.53193L10.4223 9.50049L10.4394 9.57485L10.2873 9.60985L10.2978 9.65596L10.5049 9.60829Z" fill="#309E3A"/>
</g>
</g>
</svg>
